# xmcd
#
# Track frame offsets:
# 150
# 14598
# 24796
# 39195
# 49673
# 63821
# 85445
# 98002
# 108706
# 122254
# 134482
#
# Disc length: 1897 seconds
#
#
# Revision: 0
# Processed by: cddbd v1.5.2PL0 Copyright (c) Steve Scherf et al.
# Submitted via: FreeRIP 2.945 
#
DISCID=8207670b
DTITLE=Bill Anderson - Just Plain Bill
DYEAR=1900
DGENRE=Country
TTITLE0=Us
TTITLE1=It Just Dont Take Me Long
TTITLE2=Unicorn
TTITLE3=Wont It Ever Be Morning
TTITLE4=Candy Apple Red
TTITLE5=Big Railroad man
TTITLE6=Rocky Top
TTITLE7=Tomorrow's Gonna Be Better
TTITLE8=something To Believe In
TTITLE9=Did She Mention My Name
TTITLE10=Apologize
EXTD=
EXTT0=
EXTT1=
EXTT2=
EXTT3=
EXTT4=
EXTT5=
EXTT6=
EXTT7=
EXTT8=
EXTT9=
EXTT10=
PLAYORDER=
